<?xml version="1.0" encoding="UTF-8"?><svg id="a" xmlns="http://www.w3.org/2000/svg" viewBox="0 0 100 100"><defs><style>.b{fill:#fac294;}.c{fill:#ed6c36;}.d{fill:#f59f3b;}.e{fill:#f5a057;}.f{fill:#fbbe62;}.g{fill:#fcd9be;}.h{fill:#8a591f;}.i{fill:#fff;opacity:.8;}.j{fill:#1d1d1b;opacity:.27;}</style></defs><circle class="g" cx="50" cy="50" r="50"/><ellipse class="d" cx="50" cy="49.96" rx="46.83" ry="46.82"/><path class="i" d="M43.86,16.75c-2.11,3.75-5.66,4.08-9.98,6.35-8.74,4.59-10.06,11.54-13.93,10.65-2.04-.47-3.52-2.83-3.83-4.84-1.02-6.49,9.47-12.73,15.54-15.14,4.25-1.69,11.47-3.55,12.97-1.19,.84,1.32-.39,3.52-.77,4.18Z"/><path class="j" d="M74.94,10.34c8.88,8.52,14.41,20.5,14.41,33.77,0,25.86-20.97,46.82-46.83,46.82-9.17,0-17.72-2.64-24.94-7.2,8.42,8.08,19.83,13.05,32.42,13.05,25.86,0,46.83-20.96,46.83-46.82,0-16.69-8.74-31.34-21.89-39.63Z"/><ellipse class="d" cx="50" cy="49.96" rx="46.83" ry="46.82"/><ellipse class="d" cx="50" cy="49.96" rx="46.83" ry="46.82"/><ellipse class="d" cx="50" cy="49.96" rx="46.83" ry="46.82"/><ellipse class="d" cx="50" cy="49.96" rx="46.83" ry="46.82"/><ellipse class="d" cx="50" cy="49.96" rx="46.83" ry="46.82"/><ellipse class="d" cx="50" cy="49.96" rx="46.83" ry="46.82"/><ellipse class="d" cx="50" cy="49.96" rx="46.83" ry="46.82"/><ellipse class="e" cx="50" cy="49.96" rx="46.83" ry="46.82"/><path class="f" d="M50,22.64c13.57,0,25.98-1.19,35.54-3.15-2.86-3.32-6.17-6.25-9.84-8.66-7.98,1.09-17.2,1.72-27.04,1.72-8.93,0-17.36-.52-24.81-1.43-3.5,2.36-6.66,5.18-9.4,8.37,9.57,1.96,21.98,3.15,35.55,3.15Z"/><path class="b" d="M7.99,29.28c10.04,2.88,25.13,4.71,42,4.71s31.97-1.83,42.01-4.71c-1.16-2.35-2.5-4.59-4.03-6.7-9.84,2.28-23.22,3.68-37.98,3.68s-28.14-1.4-37.98-3.68c-1.52,2.11-2.87,4.35-4.03,6.7Z"/><path class="f" d="M49.99,53.48c19.79,0,37.13-2.52,46.75-6.3-.23-3.96-.95-7.79-2.11-11.43-9.6,3.79-26.98,6.33-46.84,6.33-17.35,0-32.8-1.94-42.83-4.96-.92,3.23-1.5,6.59-1.71,10.06,9.62,3.77,26.95,6.29,46.74,6.29Z"/><path class="h" d="M49.99,53.48c-19.79,0-37.12-2.52-46.74-6.29-.05,.92-.09,1.84-.09,2.77,0,.56,.02,1.11,.04,1.66,7.58,5.07,27.79,8.7,51.54,8.7,16.72,0,31.68-1.8,41.73-4.63,.23-1.88,.36-3.78,.36-5.72,0-.93-.04-1.86-.09-2.78-9.62,3.78-26.95,6.3-46.75,6.3Z"/><path class="b" d="M59.18,72.87c.43-.59,1.2-1.5,2.42-2.2,1.77-1.01,3.45-1,4.77-.97,1.88,.04,4.28,.09,4.85,1.38,.6,1.37-1.19,3.38-2.32,4.64-1.12,1.25-1.77,1.98-2.82,2.28-3.5,1.01-8.48-3.51-7.88-6.08,.2-.85,1.02-1.5,1.41-1.81,.88-.7,1.76-.9,3.18-1.21,.69-.15,1.65-.31,2.83-.36-.81-.04-2.27-.11-4.09-.15-6.71-.12-11.69,.4-12.54,.47-4.16,.37-14.86-.31-43.73-5.03,1.54,4.98,3.9,9.6,6.91,13.71,10.05,1.98,22.38,3.14,35.69,3.14,15.64,0,29.91-1.61,40.74-4.25,2.76-4.01,4.91-8.47,6.31-13.25-4.42,1.29-8.06,2.1-10.54,2.59-6.49,1.29-11.79,2.04-11.79,2.04-2.13,.3-4.23,.87-6.37,1.12-2.25,.26-3.88,.29-5.34,1.5-.93,.77-1.43,1.73-1.71,2.42Z"/><path class="b" d="M69.77,72.45c.16,.9-1.12,1.9-2.57,3.02-.82,.63-1.22,.95-1.78,1.09-2.01,.52-4.86-1.01-4.96-2.91-.06-1.13,.87-2,1.09-2.19,1.12-.97,2.56-.85,3.87-.73,.72,.06,4.1,.37,4.35,1.72Z"/><path class="c" d="M68.65,72.74c.12,.68-.85,1.44-1.95,2.29-.62,.48-.93,.72-1.35,.83-1.52,.39-3.69-.77-3.77-2.21-.04-.86,.66-1.51,.83-1.66,.85-.74,1.94-.64,2.94-.55,.55,.05,3.11,.28,3.3,1.3Z"/><path class="i" d="M43.86,16.75c-2.11,3.75-5.66,4.08-9.98,6.35-8.74,4.59-10.06,11.54-13.93,10.65-2.04-.47-3.52-2.83-3.83-4.84-1.02-6.49,9.47-12.73,15.54-15.14,4.25-1.69,11.47-3.55,12.97-1.19,.84,1.32-.39,3.52-.77,4.18Z"/><path class="j" d="M74.94,10.34c8.88,8.52,14.41,20.5,14.41,33.77,0,25.86-20.97,46.82-46.83,46.82-9.17,0-17.72-2.64-24.94-7.2,8.42,8.08,19.83,13.05,32.42,13.05,25.86,0,46.83-20.96,46.83-46.82,0-16.69-8.74-31.34-21.89-39.63Z"/></svg>