<?xml version="1.0" encoding="UTF-8"?><svg id="a" xmlns="http://www.w3.org/2000/svg" viewBox="0 0 100 100"><defs><style>.b{fill:#e9beab;}.c{fill:#c45827;}.d{fill:#c14025;}.e{opacity:.18;}.e,.f{fill:#fff;}.g{opacity:.16;}.g,.h{fill:#1d1d1b;}.f{opacity:.8;}.h{opacity:.27;}</style></defs><circle class="b" cx="50" cy="50" r="50"/><ellipse class="c" cx="50" cy="50" rx="46.83" ry="46.82"/><path class="e" d="M96.63,45.7c-16.08,5.06-29.82,7.72-39.88,9.21-20.41,3.03-27.97,1.62-33.39-.17-9.25-3.05-15.75-8.34-19.62-12.1,.17-1.09,.38-2.26,.67-3.48,.33-1.42,.7-2.73,1.08-3.93,3.05,4.05,7.84,8.93,14.58,10.15,3.26,.59,3.83-.24,10.64-.64,10.73-.62,13.23,1.23,21.59,.48,5.87-.53,7.93-1.74,13.81-3.18,6.77-1.65,16.65-3.12,29.67-1.93,.28,1.86,.57,3.72,.85,5.58Z"/><path class="e" d="M44.04,38.77c.77,.36,4.83,2.31,9.33,1.3,.74-.17,4.14-.93,4.36-2.75,.12-.99-.75-1.95-1.52-2.4-1.14-.67-2.66-.54-3.82,.34,2.38,.8,2.52,1.22,2.5,1.37-.06,.45-1.74,.72-3.18,.42-1.17-.24-2.93-1.01-2.92-1.92,0-1.26,3.36-2.12,3.59-2.17,3.55-.88,5.7,.49,9.3,1.04,3.95,.61,3.61-.69,10-.83,6.11-.14,7.5,1.15,13.42,.86,3.63-.18,6.59-.66,8.53-1.04-1.1-2.95-2.86-6.69-5.74-10.51-1.46-1.95-2.96-3.58-4.36-4.92-5.76,2.52-12.77,4.96-20.9,6.56-21.23,4.18-39.2,.52-49.77-2.63-1.58,2.41-3.17,4.82-4.75,7.23,18.81,4.23,30.47,7.49,35.93,10.05Z"/><path class="e" d="M24.24,68.52c-.1,1.18-7.64,1.13-7.63,1.47,0,.51,16.78,3.36,37.09-.25,8.02-1.43,11.05-2.81,19.48-3.45,8.56-.65,15.66,.19,20.34,1.01,1.35-3.25,2.5-7.15,2.97-11.6,.08-.75,.14-1.49,.17-2.21-3.46,1.22-8.55,2.82-14.82,4.12-13.57,2.82-23.53,2.27-36.6,1.87-9.39-.29-23.39-.59-41.21-.52l.88,3.74c6.22,1.35,11.17,2.7,14.64,3.73,2.73,.81,4.74,1.47,4.68,2.08Z"/><path class="e" d="M89.24,75.44c-1.04-.16-2.69-.44-4.67-.98-4.94-1.35-7.7-3.11-8.55-2.19-.72,.78,.9,2.43,.2,3.53-.99,1.55-5.39,.02-10.29-.79-4.05-.67-7.1-.37-13.2-.35-9.39,.03-8.2,2.56-16.71,2.66-8.45,.1-13.88-2.36-23.96,.15h0c.99,1.36,2.16,2.83,3.56,4.34,1.71,1.84,3.39,3.37,4.93,4.61,11.34,1.42,20.18,.62,26.15-.37,8.42-1.39,14.44-3.71,26.39-4.8,5.21-.48,9.49-.53,12.25-.51,.8-.89,1.64-1.92,2.47-3.09,.54-.76,1.01-1.5,1.44-2.2Z"/><path class="e" d="M33.22,6.28c3.64-1.39,9.47-3.1,16.78-3.1,6.48,0,11.58,1.34,14.53,2.3,6.49,2.12,11.22,5.23,14.12,7.48-4.9-.54-12.27-.85-20.85,.98-7.39,1.57-10.45,3.6-16.72,5.23-5.95,1.54-14.8,2.71-26.66,.4l1.95-2.14c1.84-1.9,4.27-4.09,7.37-6.19,3.5-2.37,6.81-3.93,9.48-4.95Z"/><ellipse class="d" cx="21.8" cy="29.31" rx="11.9" ry="6.24" transform="translate(-14.34 24) rotate(-45)"/><ellipse class="d" cx="55.22" cy="8.73" rx="2.41" ry="4.59" transform="translate(39.59 62.41) rotate(-82.75)"/><ellipse class="d" cx="85.41" cy="61.91" rx="2.41" ry="4.59" transform="translate(13.22 138.83) rotate(-82.75)"/><ellipse class="d" cx="23.6" cy="78.16" rx="2.41" ry="4.59" transform="translate(-56.92 91.71) rotate(-82.75)"/><ellipse class="d" cx="63.63" cy="54.36" rx="3.64" ry="6.93" transform="translate(1.67 110.62) rotate(-82.75)"/><ellipse class="d" cx="76.11" cy="37.95" rx="7.13" ry="13.6" transform="translate(-7.87 51.36) rotate(-35.57)"/><ellipse class="d" cx="44.29" cy="77.43" rx="7.13" ry="13.6" transform="translate(-36.77 40.21) rotate(-35.57)"/><path class="g" d="M14.34,37.73c-2.44-2.44-.65-8.18,4-12.83,3.06-3.06,6.6-4.88,9.35-5.06-2.85-.24-6.88,1.63-10.31,5.06-4.65,4.65-6.44,10.39-4,12.83,.83,.83,2.05,1.16,3.47,1.06-1.01-.08-1.88-.43-2.51-1.06Z"/><path class="g" d="M81.92,33.8c-3.54-4.95-8.24-7.92-11.6-7.65,3.26,.29,7.42,3.14,10.63,7.63,4.37,6.11,5.31,12.92,2.11,15.21-.61,.44-1.32,.67-2.11,.74,1.18,.11,2.24-.11,3.09-.72,3.21-2.29,2.26-9.1-2.11-15.21Z"/><ellipse class="d" cx="44.29" cy="77.43" rx="7.13" ry="13.6" transform="translate(-36.77 40.21) rotate(-35.57)"/><path class="g" d="M52.2,87.44c-3.21,2.29-9.35-.8-13.71-6.91-2.46-3.44-3.83-7.1-3.99-10.05-.16,3.1,1.23,7.24,3.99,11.1,4.37,6.11,10.51,9.2,13.71,6.91,1.4-1,2.01-2.87,1.89-5.16-.09,1.81-.7,3.27-1.89,4.12Z"/><ellipse class="d" cx="23.6" cy="78.16" rx="2.41" ry="4.59" transform="translate(-56.92 91.71) rotate(-82.75)"/><path class="g" d="M23.29,80.16c-2.29-.29-4.07-1.42-4.24-2.62,0,.01,0,.02,0,.04-.17,1.32,1.73,2.65,4.25,2.97,2.51,.32,4.69-.49,4.86-1.81,.01-.12,0-.23,0-.35-.2,1.3-2.36,2.09-4.85,1.77Z"/><ellipse class="d" cx="28.16" cy="47.23" rx="2.41" ry="4.59" transform="translate(-22.24 69.2) rotate(-82.75)"/><path class="g" d="M27.91,49.2c-2.38-.3-4.21-1.51-4.25-2.76-.02,.07-.04,.14-.05,.21-.17,1.32,1.73,2.65,4.25,2.97,2.51,.32,4.69-.49,4.86-1.81,0-.07,0-.14,0-.21-.36,1.2-2.43,1.91-4.81,1.6Z"/><path class="g" d="M63.17,57.32c-3.44-.44-6.11-2.12-6.4-3.92,0,.03-.02,.05-.02,.08-.25,1.99,2.62,4,6.42,4.48,3.8,.48,7.08-.74,7.34-2.73,.02-.19,.01-.38-.02-.56-.33,1.94-3.57,3.13-7.32,2.65Z"/><path class="g" d="M55.52,6.95c2.21,.28,3.95,1.34,4.22,2.49,0-.04,.02-.08,.03-.13,.17-1.32-1.73-2.65-4.25-2.97-2.51-.32-4.69,.49-4.86,1.81-.02,.16,0,.32,.03,.48,.29-1.24,2.4-1.99,4.83-1.68Z"/><path class="g" d="M89.56,61.28c.1,.24,.14,.49,.11,.73-.17,1.32-2.34,2.13-4.86,1.81-1.72-.22-3.16-.91-3.84-1.75,.45,1.05,2.09,1.98,4.14,2.24,2.51,.32,4.69-.49,4.86-1.81,.05-.41-.1-.83-.41-1.21Z"/><path class="f" d="M43.86,16.75c-2.11,3.75-5.66,4.08-9.98,6.35-8.74,4.59-10.06,11.54-13.93,10.65-2.04-.47-3.52-2.83-3.83-4.84-1.02-6.49,9.47-12.73,15.54-15.14,4.25-1.69,11.47-3.55,12.97-1.19,.84,1.32-.39,3.52-.77,4.18Z"/><path class="h" d="M74.93,10.38c8.88,8.52,14.41,20.5,14.41,33.77,0,25.86-20.97,46.82-46.83,46.82-9.17,0-17.72-2.64-24.94-7.2,8.42,8.08,19.83,13.05,32.42,13.05,25.86,0,46.83-20.96,46.83-46.82,0-16.69-8.74-31.34-21.89-39.63Z"/></svg>