<?xml version="1.0" encoding="UTF-8"?><svg id="a" xmlns="http://www.w3.org/2000/svg" viewBox="0 0 100 100"><defs><style>.b,.c{fill:#fff;}.d{fill:#a09793;}.e{fill:#858584;}.f{fill:#aaa19d;}.g{fill:#d8d7d5;}.c{opacity:.8;}.h{fill:#1d1d1b;opacity:.27;}</style></defs><circle class="g" cx="50" cy="50" r="50"/><circle class="d" cx="50" cy="50" r="46.83"/><ellipse class="e" cx="26.1" cy="69.76" rx="8.08" ry="5.86" transform="translate(-41.69 38.89) rotate(-45)"/><path class="f" d="M50,96.83c-3.86,0-9.9-.46-16.7-3.07-10.13-3.88-16.38-10.38-19.32-13.95-2.69-3.27-10.79-14-10.81-29.81,0-3.03,.28-15.53,8.9-27.47,3.43-4.76,7.16-7.99,9.85-10.01l-2.25,13.55,3.47,7.85-1.66,4.83,1.66,6.34,7.65,8.54-.1,8.06,8,4.07,.6,8.6c1.71,3.27,3.42,6.54,5.13,9.81,1.86,4.22,3.72,8.45,5.58,12.67Z"/><path class="b" d="M73.67,51.45l.93-2.29-.02,2.47,4.3-5.26-3.53,5.78,2.28-.96-1.76,1.73,2.47-.02-2.29,.93,2.29,.93-2.47-.02,4.14,3.03-4.65-2.26,.96,2.28-1.73-1.76,.78,6.95-1.69-6.77-.92,4.1v-4.28l-1.73,1.76,.96-2.28-2.28,.96,1.76-1.73-6.11,.85,5.93-1.76-3.32-1.2,3.5,.29-3.85-2.75,4.37,1.98-.58-1.38,1.36,.86-.29-5.19,1.2,5.01Z"/><path class="b" d="M23.33,65.92l.93-2.29-.02,2.47,4.3-5.26-3.53,5.78,2.28-.96-1.76,1.73,2.47-.02-2.29,.93,2.29,.93-2.47-.02,4.14,3.03-4.65-2.26,.96,2.28-1.73-1.76,.78,6.95-1.69-6.77-.92,4.1v-4.28l-1.73,1.76,.96-2.28-2.28,.96,1.76-1.73-6.11,.85,5.93-1.76-3.32-1.2,3.5,.29-3.85-2.75,4.37,1.98-.58-1.38,1.36,.86-.29-5.19,1.2,5.01Z"/><path class="b" d="M52.53,31.85l.93-2.29-.02,2.47,4.3-5.26-3.53,5.78,2.28-.96-1.76,1.73,2.47-.02-2.29,.93,2.29,.93-2.47-.02,4.14,3.03-4.65-2.26,.96,2.28-1.73-1.76,.78,6.95-1.69-6.77-.92,4.1v-4.28l-1.73,1.76,.96-2.28-2.28,.96,1.76-1.73-6.11,.85,5.93-1.76-3.32-1.2,3.5,.29-3.85-2.75,4.37,1.98-.58-1.38,1.36,.86-.29-5.19,1.2,5.01Z"/><path class="b" d="M82.78,37.09l.24-.6v.65l1.12-1.38-.92,1.51,.6-.25-.46,.45h.65l-.6,.24,.6,.24h-.65l1.08,.79-1.22-.59,.25,.6-.45-.46,.2,1.82-.44-1.77-.24,1.07v-1.12l-.45,.46,.25-.6-.6,.25,.46-.45-1.6,.22,1.55-.46-.87-.31,.92,.07-1.01-.72,1.14,.52-.15-.36,.35,.23-.07-1.36,.31,1.31Z"/><path class="b" d="M57.16,60.07l.24-.6v.65l1.12-1.38-.92,1.51,.6-.25-.46,.45h.65l-.6,.24,.6,.24h-.65l1.08,.79-1.22-.59,.25,.6-.45-.46,.2,1.82-.44-1.77-.24,1.07v-1.12l-.45,.46,.25-.6-.6,.25,.46-.45-1.6,.22,1.55-.46-.87-.31,.92,.07-1.01-.72,1.14,.52-.15-.36,.35,.23-.07-1.36,.31,1.31Z"/><path class="b" d="M14.36,49.16l.24-.6v.65l1.12-1.38-.92,1.51,.6-.25-.46,.45h.65l-.6,.24,.6,.24h-.65l1.08,.79-1.22-.59,.25,.6-.45-.46,.2,1.82-.44-1.77-.24,1.07v-1.12l-.45,.46,.25-.6-.6,.25,.46-.45-1.6,.22,1.55-.46-.87-.31,.92,.07-1.01-.72,1.14,.52-.15-.36,.35,.23-.07-1.36,.31,1.31Z"/><path class="b" d="M41.44,87.24l.24-.6v.65l1.12-1.38-.92,1.51,.6-.25-.46,.45h.65l-.6,.24,.6,.24h-.65l1.08,.79-1.22-.59,.25,.6-.45-.46,.2,1.82-.44-1.77-.24,1.07v-1.12l-.45,.46,.25-.6-.6,.25,.46-.45-1.6,.22,1.55-.46-.87-.31,.92,.07-1.01-.72,1.14,.52-.15-.36,.35,.23-.07-1.36,.31,1.31Z"/><path class="b" d="M57.16,17.9l.24-.6v.65l1.12-1.38-.92,1.51,.6-.25-.46,.45h.65l-.6,.24,.6,.24h-.65l1.08,.79-1.22-.59,.25,.6-.45-.46,.2,1.82-.44-1.77-.24,1.07v-1.12l-.45,.46,.25-.6-.6,.25,.46-.45-1.6,.22,1.55-.46-.87-.31,.92,.07-1.01-.72,1.14,.52-.15-.36,.35,.23-.07-1.36,.31,1.31Z"/><path class="b" d="M87.63,68.3l.24-.6v.65l1.12-1.38-.92,1.51,.6-.25-.46,.45h.65l-.6,.24,.6,.24h-.65l1.08,.79-1.22-.59,.25,.6-.45-.46,.2,1.82-.44-1.77-.24,1.07v-1.12l-.45,.46,.25-.6-.6,.25,.46-.45-1.6,.22,1.55-.46-.87-.31,.92,.07-1.01-.72,1.14,.52-.15-.36,.35,.23-.07-1.36,.31,1.31Z"/><path class="c" d="M43.86,16.75c-2.11,3.75-5.66,4.08-9.98,6.35-8.74,4.59-10.06,11.54-13.93,10.65-2.04-.47-3.52-2.83-3.83-4.84-1.02-6.49,9.47-12.73,15.54-15.14,4.25-1.69,11.47-3.55,12.97-1.19,.84,1.32-.39,3.52-.77,4.18Z"/><path class="h" d="M74.93,10.31c8.88,8.52,14.41,20.5,14.41,33.77,0,25.86-20.97,46.82-46.83,46.82-9.17,0-17.72-2.64-24.94-7.2,8.42,8.08,19.83,13.05,32.42,13.05,25.86,0,46.83-20.96,46.83-46.82,0-16.69-8.74-31.34-21.89-39.63Z"/></svg>