<?xml version="1.0" encoding="UTF-8"?><svg id="a" xmlns="http://www.w3.org/2000/svg" viewBox="0 0 190 95.29"><defs><style>.b{fill:#f7b177;}.c{fill:#f3946d;}.d{fill:#f2b69f;}.e{fill:#fcdfc9;}.f{fill:#dbb491;}.g{fill:#e37960;}.h{fill:#fff;opacity:.8;}.i{fill:#1d1d1b;opacity:.27;}</style></defs><path class="e" d="M189.92,32.96c-1.53-7.9-23.39-10.79-54.18-8.41C127.6,9.91,111.98,0,94.05,0c-24.34,0-44.4,18.25-47.29,41.8h0C17.57,51.04-1.43,61.8,.08,69.65c1.57,8.15,24.77,10.96,57.09,8.18,8.74,10.66,22.01,17.46,36.87,17.46,21.33,0,39.38-14.01,45.46-33.32,31.3-9.49,51.99-20.82,50.41-29.01ZM38.8,73.76c-1.04,.02-2.15,.03-3.3,.03-7.86,0-26.62-1.64-27.62-5.81-.72-3.02,5.43-8.67,38.86-21.51-.02,.1-.05,.29-.07,.52,0,0-.05,.53-.03,1.09,.37,7.98,1.93,13.12,1.93,13.12,1.32,4.37,3.28,8.46,5.76,12.16-6.11,.46-10,.32-15.53,.4Zm101.88-16.92c.82-3.51,1.62-8.76,.95-14.85-.32-2.94-.87-7.57-3.68-12.57-.11-.19-.2-.35-.26-.46,4.82-.27,42.97-2.12,44.42,5.34,1.5,7.74-37.51,21.25-41.43,22.54Z"/><ellipse class="b" cx="94.11" cy="47.65" rx="44.63" ry="44.62"/><path class="c" d="M96.41,46.11c-3.32,.19-13.04,.51-24.97-2.84-8.67-2.43-15.41-5.93-20.02-8.75,.45-1.48,1.03-3.09,1.77-4.77,1.39-3.18,3-5.8,4.49-7.89,2.54,3.69,7.33,9.51,15.19,13.43,3.28,1.63,9.54,4.15,23.25,3.83,8.88-.21,22.82-1.66,39.36-8.27,.12,.33,.24,.66,.36,.99-6.56,4.68-20.5,13.2-39.44,14.28Z"/><path class="c" d="M84.95,30.82c6.23,.99,7.35-1.53,24.49-2.13,3.27-.11,7.74-.18,14.04-1.06,4.04-.57,7.34-1.26,9.56-1.78-.79-1.41-1.72-2.89-2.83-4.42-2.63-3.62-5.45-6.34-7.91-8.34-3.83,2.85-9.57,6.29-17.12,8.16-19.78,4.87-36.27-4.96-40.16-7.42l-1.4,1.25c8.11,11.46,15.72,14.86,21.33,15.75Z"/><path class="c" d="M137.04,59.88c-2.66,.66-6.67,1.6-11.59,2.53-13.04,2.45-30.64,5.62-51.43,2.48-5.64-.85-13.67-2.49-23.09-5.97,.43,1.64,1.02,3.49,1.82,5.45,.85,2.08,1.77,3.89,2.66,5.43,5.31,2.1,11.66,3.96,18.95,4.86,14.07,1.73,25.53-.9,41.68-4.75,8.19-1.95,14.87-3.99,19.47-5.5,.3-.74,.59-1.53,.88-2.37,.25-.74,.47-1.46,.65-2.15Z"/><path class="c" d="M78.11,5.98c3.47-1.32,9.02-2.95,15.99-2.95,6.16,0,11.03,1.28,13.84,2.19,3.49,1.14,6.29,2.53,8.32,3.69-1.24,1.32-3.2,3.11-5.97,4.57-2.08,1.1-4.89,2.15-12.77,2.63-9.75,.59-15.79,.88-22.7-2.19-2.51-1.12-4.44-2.36-5.69-3.26,1.27-.86,2.74-1.76,4.4-2.62,1.62-.84,3.16-1.51,4.56-2.05Z"/><path class="h" d="M88.25,16c-2.01,3.57-5.39,3.89-9.51,6.05-8.33,4.37-9.59,11-13.28,10.15-1.94-.45-3.35-2.69-3.65-4.61-.98-6.19,9.03-12.13,14.81-14.43,4.05-1.61,10.93-3.38,12.36-1.14,.81,1.26-.37,3.35-.73,3.99Z"/><path class="c" d="M88.8,61.71c7.08-.2,13.81-1.88,25.05-4.67,10.51-2.62,19.03-5.41,24.85-7.48,.08-1.82,.06-3.9-.16-6.19-.2-2.04-.51-3.88-.88-5.5-4.79,3.85-13.3,9.69-25.33,13.02-2.53,.7-11.58,3.05-23.58,2.36-17.87-1.03-31.37-8.18-38.67-12.88-.3,1.82-.51,3.81-.57,5.95-.02,.61-.02,1.21-.02,1.8,17.86,12.77,32.34,13.8,39.31,13.6Z"/><path class="i" d="M117.87,9.89c8.46,8.12,13.73,19.53,13.73,32.18,0,24.64-19.98,44.62-44.63,44.62-8.74,0-16.88-2.52-23.76-6.86,8.02,7.7,18.9,12.44,30.9,12.44,24.65,0,44.63-19.98,44.63-44.62,0-15.91-8.33-29.86-20.86-37.76Z"/><path class="h" d="M168.68,36.9c-.42-2.17-12.22-2.13-28.31-.62,.26,1.06,.49,2.12,.67,3.2,9.81-1.1,16.45-1.4,16.63-.46,.42,2.16-32.94,10.79-61.84,16.35-28.91,5.56-63.09,9.92-63.5,7.75-.18-.93,5.91-3.06,15.18-5.62-.22-1.06-.41-2.12-.56-3.2-15.27,4.52-26.04,8.81-25.63,10.95,.78,4.05,41.27,.4,75.23-6.14,33.95-6.53,72.9-18.17,72.12-22.22Z"/><path class="d" d="M179.67,34.71c-.8-4.12-17.21-5.86-41.22-4.46,.58,1.47,1.08,2.97,1.51,4.5,17.45-1.39,30.47-1.06,31,1.68,.96,4.96-38.97,17.8-74.05,24.56-35.08,6.77-76.92,9.7-77.88,4.74-.52-2.72,11.22-7.8,27.72-12.95-.17-1.54-.26-3.11-.27-4.69-22.54,7.59-36.95,15.27-36.16,19.36,.64,3.29,11.92,5.18,29.44,4.91,17.65-.27,39.38-2.59,58.15-6.22,40.36-7.8,83.15-24.25,81.76-31.42Z"/><path class="f" d="M183.88,33.9c-1.37-7.11-20.36-9.88-47.45-8.11,.67,1.3,1.28,2.63,1.84,3.99,22.88-1.34,40.95,.09,41.87,4.84,1.5,7.77-42.88,24.39-82.14,31.98-39.26,7.59-86.64,8.7-88.14,.93-.91-4.72,15.11-12.7,36.62-19.95,0-1.48,.08-2.95,.21-4.4C21.14,51.61,4.75,61.18,6.12,68.26c2.06,10.64,43.52,11.58,92.61,2.09,49.09-9.49,87.22-25.81,85.16-36.45Z"/><path class="g" d="M183.88,33.9c-1.37-7.11-20.36-9.88-47.45-8.11,.6,1.15,1.15,2.33,1.65,3.53,20.38-1.2,41.43-.43,42.52,5.22,1.64,8.46-44.78,25.25-82.52,32.54-18.82,3.64-40.62,5.97-58.32,6.23-1.02,.02-2.11,.03-3.25,.03-10.97,0-26.2-.88-27.14-5.71-1.08-5.6,17.95-14.1,37.1-20.54,.02-1.31,.08-2.61,.2-3.89C21.14,51.61,4.75,61.18,6.12,68.26c2.06,10.64,43.52,11.58,92.61,2.09,49.09-9.49,87.22-25.81,85.16-36.45Z"/></svg>