<?xml version="1.0" encoding="UTF-8"?><svg id="a" xmlns="http://www.w3.org/2000/svg" viewBox="0 0 100 100"><defs><style>.b{fill:#abc7d8;}.c{fill:none;stroke:#93b5ce;stroke-linecap:round;stroke-linejoin:round;stroke-width:2px;}.d{fill:#fff;opacity:.8;}.e{fill:#1d1d1b;opacity:.27;}</style></defs><circle class="b" cx="50" cy="50" r="50"/><path class="c" d="M19.76,14.01c.2,.34,13.72-8.44,13.94-8.05,.47,.81-22.67,15.65-22.28,16.33,.61,1.05,33.08-20.54,33.71-19.46,.7,1.21-38.33,23.35-37.36,25.03C8.67,29.41,51.08,.82,51.96,2.35c1.04,1.81-47.35,29.09-46.61,30.37C6.59,34.87,56.24,.81,57.34,2.71,58.59,4.89,2.78,35.21,3.85,37.06,5.17,39.34,60.48,1.19,61.86,3.57,62.89,5.36,1.38,38.6,2.83,41.11c1.24,2.14,61.75-38.75,63.09-36.43C67.01,6.57,.6,42.37,2.11,44.99,3.71,47.76,68.5,3.96,69.67,5.98S.47,46.18,1.87,48.59C3.49,51.41,71.78,5.67,72.88,7.59,74.67,10.69,.29,49.44,1.82,52.08S74.21,6.26,75.96,9.28C77.54,12.03,.61,52.84,2.09,55.39S77.52,9.07,78.72,11.15C80.27,13.82,.8,55.92,2.4,58.68S80.11,11.09,81.29,13.13C82.8,15.74,1.63,59.09,3.14,61.71c1.13,1.96,79.27-48.67,80.52-46.49C85.58,18.54,2.28,61.95,3.89,64.75c1.23,2.13,80.15-50.35,81.91-47.29,1.22,2.11-82.79,46.8-80.86,50.15S85.83,16.37,87.79,19.77c1.85,3.2-82.96,48.37-81.67,50.62,1.94,3.36,82.28-50.44,83.55-48.24,1.89,3.28-83.77,48.32-82.25,50.95,1.95,3.38,82.2-51.23,83.83-48.4,1.39,2.41-83.97,47.96-82.25,50.95,1.47,2.54,82.28-51.09,83.83-48.4,2.16,3.74-84.01,47.9-82.25,50.95,1.31,2.27,82.25-50.33,83.48-48.2,2.01,3.49-83.01,47.99-81.54,50.54,1.66,2.87,80.68-51.27,82.71-47.75,1.32,2.28-82.16,47.59-80.73,50.07,1.94,3.36,80.11-49.94,81.71-47.18,1.97,3.42-81.28,46.3-79.51,49.37,1.22,2.12,78.65-49.12,80.26-46.34,1.81,3.13-79.16,46.21-77.88,48.43,1.36,2.36,77.08-47.99,78.59-45.37,1.24,2.15-77.36,44.9-75.96,47.32,1.15,1.99,74.5-47,76.23-44.01,1.44,2.49-75.04,43.14-73.46,45.88,1.19,2.06,72.34-44.97,73.73-42.57,1.62,2.81-72.14,41.52-70.58,44.22S97.08,50.18,98.09,51.93c1.24,2.15-68.58,39.75-67.15,42.23,1,1.73,65.94-40.27,66.9-38.62,1.54,2.66-64.71,37.21-63.15,39.92,1.44,2.5,61.38-37.67,62.35-36,1.3,2.26-59.22,35.23-58.17,37.05,.8,1.39,55.64-35.35,57.04-32.93,1.26,2.18-53.19,32.27-52.36,33.7,1.18,2.04,49.61-31.22,50.73-29.29,1.03,1.78-46.06,28.16-45.24,29.58,.63,1.1,41.98-26.01,42.75-24.68,.82,1.42-36.38,23.08-35.78,24.12,.51,.88,30.85-19.49,31.58-18.23"/><path class="d" d="M43.86,16.75c-2.11,3.75-5.66,4.08-9.98,6.35-8.74,4.59-10.06,11.54-13.93,10.65-2.04-.47-3.52-2.83-3.83-4.84-1.02-6.49,9.47-12.73,15.54-15.14,4.25-1.69,11.47-3.55,12.97-1.19,.84,1.32-.39,3.52-.77,4.18Z"/><path class="e" d="M74.94,10.34c8.88,8.52,14.41,20.5,14.41,33.77,0,25.86-20.97,46.82-46.83,46.82-9.17,0-17.72-2.64-24.94-7.2,8.42,8.08,19.83,13.05,32.42,13.05,25.86,0,46.83-20.96,46.83-46.82,0-16.69-8.74-31.34-21.89-39.63Z"/><path class="b" d="M50,0C22.39,0,0,22.39,0,50s22.39,50,50,50,50-22.39,50-50S77.61,0,50,0Zm0,96.82c-25.86,0-46.83-20.96-46.83-46.82S24.14,3.18,50,3.18s46.83,20.96,46.83,46.82-20.97,46.82-46.83,46.82Z"/></svg>