<?xml version="1.0" encoding="UTF-8"?><svg id="a" xmlns="http://www.w3.org/2000/svg" viewBox="0 0 100 100"><defs><style>.b{fill:#f4e7ca;}.c{fill:#e4c078;}.d{opacity:.18;}.d,.e{fill:#fff;}.e{opacity:.8;}.f{fill:#1d1d1b;opacity:.27;}</style></defs><circle class="b" cx="50" cy="50" r="50"/><ellipse class="c" cx="50" cy="49.96" rx="46.83" ry="46.82"/><path class="d" d="M52.55,52.34c-11.87,1.42-19.5,4.98-29.19,2.37-9.72-2.62-16.25-8.5-19.62-12.1,.17-1.12,.39-2.28,.67-3.48,.93-4.06,2.29-7.56,3.7-10.45,3.01,3.21,7.4,7.13,13.41,10.25,27.61,14.36,61.17-2.7,62.06,0,.58,1.75-12.83,11.23-31.03,13.41Z"/><path class="d" d="M44.04,38.73c14.38,2.44,22.81,3.87,30.3-.58,1.32-.78,5.14-2.86,10.76-4.16,3.56-.82,6.58-1.01,8.53-1.04-1.1-2.95-2.86-6.69-5.74-10.51-1.46-1.95-2.96-3.58-4.36-4.92-3.82,2.76-9.41,6.25-16.68,8.91-26.73,9.79-51.7-.51-52.29,1.77-.45,1.74,14.04,7.91,29.48,10.53Z"/><path class="d" d="M50.76,68.91c4.87-1.72,12.65-6.15,23.39-7.88,.41-.07,8.04-1.23,12.42,1.19,2.69,1.49,5.6,3.89,5.6,3.89,.51,.42,.96,.82,1.35,1.17,1.21-2.91,2.47-6.84,2.97-11.6,.26-2.42,.27-4.63,.17-6.57-3.21-.06-8.14-.02-14.1,.63-18.24,2.01-24.72,7.43-37.32,9.72-21.94,3.99-37.47-6.07-38.11-4.2-.81,2.38,24.03,20.6,43.63,13.66Z"/><path class="d" d="M89.24,75.4c-1.39-.32-2.95-.65-4.67-.98,0,0-8.84-1.7-17.3-2.2-10.86-.64-10.71,2.51-25.28,2.91-9.52,.26-17.38-.87-29.93,2.28h0c.99,1.36,2.16,2.83,3.56,4.34,1.71,1.84,3.39,3.37,4.93,4.61,11.51,2.01,20.27,.96,26.15-.37,9.23-2.09,14.6-5.62,26.65-7.36,6.02-.87,11.03-.9,14.28-.81l1.61-2.44Z"/><path class="d" d="M33.22,6.24c3.64-1.39,9.47-3.1,16.78-3.1,6.12,0,11.12,1.2,14.53,2.3,4.34,.94,7.55,3.47,7.93,6.36,.47,3.64-3.75,6.54-6.36,8.33-5.48,3.76-11.28,4.68-16.67,5.04-13.42,.91-27.64-1.36-27.63-3.62,.01-2.47,16.92-2.32,17.87-7.67,.49-2.78-3.53-5.79-6.45-7.64Z"/><path class="e" d="M43.86,16.75c-2.11,3.75-5.66,4.08-9.98,6.35-8.74,4.59-10.06,11.54-13.93,10.65-2.04-.47-3.52-2.83-3.83-4.84-1.02-6.49,9.47-12.73,15.54-15.14,4.25-1.69,11.47-3.55,12.97-1.19,.84,1.32-.39,3.52-.77,4.18Z"/><path class="f" d="M74.94,10.34c8.88,8.52,14.41,20.5,14.41,33.77,0,25.86-20.97,46.82-46.83,46.82-9.17,0-17.72-2.64-24.94-7.2,8.42,8.08,19.83,13.05,32.42,13.05,25.86,0,46.83-20.96,46.83-46.82,0-16.69-8.74-31.34-21.89-39.63Z"/></svg>