<?xml version="1.0" encoding="UTF-8"?><svg id="a" xmlns="http://www.w3.org/2000/svg" viewBox="0 0 190 190"><defs><style>.b{fill:#abc7d8;}.c{fill:none;stroke:#93b5ce;stroke-linecap:round;stroke-linejoin:round;stroke-width:2px;}.d{fill:#fff;opacity:.8;}.e{fill:#1d1d1b;opacity:.27;}</style></defs><circle class="b" cx="95" cy="95.05" r="50"/><path class="c" d="M64.76,59.06c.2,.34,13.72-8.44,13.94-8.05,.47,.81-22.67,15.65-22.28,16.33,.61,1.05,33.08-20.54,33.71-19.46,.7,1.21-38.33,23.35-37.36,25.03,.89,1.55,43.3-27.04,44.19-25.51,1.04,1.81-47.35,29.09-46.61,30.37,1.24,2.14,50.88-31.91,51.98-30.01,1.26,2.18-54.56,32.5-53.49,34.35,1.32,2.29,56.64-35.87,58.01-33.49,1.03,1.79-60.47,35.04-59.02,37.54,1.24,2.14,61.75-38.75,63.09-36.43,1.09,1.89-65.32,37.69-63.81,40.31,1.6,2.77,66.39-41.03,67.56-39.01S45.47,91.23,46.87,93.64c1.62,2.81,69.91-42.92,71.02-41,1.79,3.1-72.59,41.85-71.06,44.49S119.21,51.31,120.96,54.33c1.59,2.75-75.35,43.56-73.87,46.11S122.52,54.12,123.72,56.2c1.54,2.67-77.92,44.77-76.33,47.53S125.11,56.14,126.29,58.18c1.51,2.61-79.66,45.96-78.15,48.58,1.13,1.96,79.27-48.67,80.52-46.49,1.92,3.32-81.39,46.73-79.78,49.52,1.23,2.13,80.15-50.35,81.91-47.29,1.22,2.11-82.79,46.8-80.86,50.15s80.89-51.23,82.85-47.83c1.85,3.2-82.96,48.37-81.67,50.62,1.94,3.36,82.28-50.44,83.55-48.24,1.89,3.28-83.77,48.32-82.25,50.95,1.95,3.38,82.2-51.23,83.83-48.4,1.39,2.41-83.97,47.96-82.25,50.95,1.47,2.54,82.28-51.09,83.83-48.4,2.16,3.74-84.01,47.9-82.25,50.95,1.31,2.27,82.25-50.33,83.48-48.2,2.01,3.49-83.01,47.99-81.54,50.54,1.66,2.87,80.68-51.27,82.71-47.75,1.32,2.28-82.16,47.59-80.73,50.07,1.94,3.36,80.11-49.94,81.71-47.18,1.97,3.42-81.28,46.3-79.51,49.37,1.22,2.12,78.65-49.12,80.26-46.34,1.81,3.13-79.16,46.21-77.88,48.43,1.36,2.36,77.08-47.99,78.59-45.37,1.24,2.15-77.36,44.9-75.96,47.32,1.15,1.99,74.5-47,76.23-44.01,1.44,2.49-75.04,43.14-73.46,45.88,1.19,2.06,72.34-44.97,73.73-42.57,1.62,2.81-72.14,41.52-70.58,44.22s69.44-42.42,70.45-40.68c1.24,2.15-68.58,39.75-67.15,42.23,1,1.73,65.94-40.27,66.9-38.62,1.54,2.66-64.71,37.21-63.15,39.92,1.44,2.5,61.38-37.67,62.35-36,1.3,2.26-59.22,35.23-58.17,37.05,.8,1.39,55.64-35.35,57.04-32.93,1.26,2.18-53.19,32.27-52.36,33.7,1.18,2.04,49.61-31.22,50.73-29.29,1.03,1.78-46.06,28.16-45.24,29.58,.63,1.1,41.98-26.01,42.75-24.68,.82,1.42-36.38,23.08-35.78,24.12,.51,.88,30.85-19.49,31.58-18.23"/><path class="d" d="M88.86,61.8c-2.11,3.75-5.66,4.08-9.98,6.35-8.74,4.59-10.06,11.54-13.93,10.65-2.04-.47-3.52-2.83-3.83-4.84-1.02-6.49,9.47-12.73,15.54-15.14,4.25-1.69,11.47-3.55,12.97-1.19,.84,1.32-.39,3.52-.77,4.18Z"/><path class="e" d="M119.94,55.39c8.88,8.52,14.41,20.5,14.41,33.77,0,25.86-20.97,46.82-46.83,46.82-9.17,0-17.72-2.64-24.94-7.2,8.42,8.08,19.83,13.05,32.42,13.05,25.86,0,46.83-20.96,46.83-46.82,0-16.69-8.74-31.34-21.89-39.63Z"/><path class="b" d="M95,45.05c-27.61,0-50,22.39-50,50s22.39,50,50,50,50-22.39,50-50-22.39-50-50-50Zm0,96.82c-25.86,0-46.83-20.96-46.83-46.82s20.97-46.82,46.83-46.82,46.83,20.96,46.83,46.82-20.97,46.82-46.83,46.82Z"/></svg>